<svg width="64" height="64" viewBox="0 0 64 64" fill="none" xmlns="http://www.w3.org/2000/svg">
<g clip-path="url(#clip0)">
<path d="M61.5 29.5H8.5553L17.3258 20.772C18.3044 19.798 18.3082 18.2151 17.3342 17.2365C16.3602 16.2577 14.7772 16.2541 13.7985 17.228L0.735547 30.228C0.734672 30.2287 0.734047 30.2296 0.733297 30.2304C-0.242828 31.2044 -0.245953 32.7924 0.733047 33.7696C0.733922 33.7704 0.734547 33.7712 0.735297 33.772L13.7983 46.772C14.7768 47.7457 16.3598 47.7424 17.3339 46.7635C18.3079 45.7849 18.3042 44.202 17.3255 43.228L8.5553 34.5H61.5C62.8808 34.5 64 33.3807 64 32C64 30.6192 62.8808 29.5 61.5 29.5Z" fill="#789D55"/>
</g>
<defs>
<clipPath id="clip0">
<rect width="64" height="64" fill="white"/>
</clipPath>
</defs>
</svg>
