<svg width="73" height="73" viewBox="0 0 73 73" fill="none" xmlns="http://www.w3.org/2000/svg">
<path d="M36.5 0C16.3739 0 0 16.3739 0 36.5C0 45.3148 3.14143 53.4092 8.36337 59.7237C8.37675 59.742 8.37797 59.7651 8.39257 59.7821C12.163 64.3288 16.8983 67.8146 22.175 70.0666C22.2358 70.0922 22.2954 70.1201 22.3563 70.1457C22.7833 70.3258 23.2152 70.4925 23.6484 70.6555C23.8187 70.72 23.989 70.7857 24.1618 70.8477C24.5353 70.9816 24.9112 71.1081 25.2896 71.2298C25.5317 71.3076 25.7739 71.3843 26.0184 71.4573C26.353 71.557 26.6888 71.6532 27.027 71.7444C27.3239 71.8247 27.6232 71.8989 27.9225 71.9707C28.2255 72.0437 28.5296 72.1167 28.835 72.1812C29.1757 72.2542 29.52 72.3187 29.8655 72.3819C30.1429 72.433 30.4191 72.4866 30.6989 72.5316C31.0822 72.5936 31.4679 72.6423 31.8548 72.6922C32.1042 72.7238 32.3524 72.7603 32.603 72.7871C33.041 72.8333 33.4827 72.8662 33.9255 72.8966C34.1312 72.9112 34.3356 72.9331 34.5424 72.944C35.1884 72.9805 35.8418 73 36.5 73C37.1582 73 37.8116 72.9805 38.4601 72.9465C38.6669 72.9355 38.8713 72.9136 39.0769 72.899C39.5198 72.8674 39.9614 72.8358 40.3994 72.7895C40.6501 72.7627 40.8983 72.7262 41.1477 72.6946C41.5346 72.6447 41.9202 72.5961 42.3035 72.534C42.5821 72.489 42.8595 72.4355 43.1369 72.3844C43.4812 72.3211 43.8256 72.2566 44.1674 72.1836C44.4728 72.1179 44.7758 72.0461 45.0799 71.9731C45.3792 71.9001 45.6785 71.8259 45.9754 71.7468C46.3136 71.6568 46.6494 71.5595 46.984 71.4597C47.2286 71.3867 47.4707 71.3101 47.7128 71.2322C48.0912 71.1105 48.4671 70.984 48.8407 70.8502C49.0122 70.7881 49.1825 70.7224 49.3541 70.6579C49.7884 70.4949 50.2191 70.327 50.6462 70.1481C50.707 70.1226 50.7666 70.0946 50.8275 70.0691C56.1029 67.817 60.8394 64.3313 64.6099 59.7846C64.6245 59.7675 64.6257 59.7432 64.6391 59.7262C69.8586 53.4092 73 45.3148 73 36.5C73 16.3739 56.6261 0 36.5 0ZM51.291 67.1843C51.2728 67.1929 51.2557 67.2026 51.2375 67.2111C50.8031 67.4204 50.3615 67.6175 49.9162 67.8097C49.8152 67.8523 49.7154 67.8961 49.6145 67.9387C49.2251 68.1017 48.8309 68.2562 48.4343 68.4046C48.2688 68.4667 48.1034 68.5275 47.9367 68.5859C47.5851 68.7113 47.2322 68.8317 46.8757 68.9461C46.6543 69.0166 46.4317 69.0835 46.209 69.1493C45.8927 69.2441 45.5751 69.3354 45.2539 69.4206C44.9838 69.4923 44.7113 69.5581 44.4388 69.6225C44.1528 69.6907 43.8681 69.76 43.5798 69.8209C43.2647 69.8878 42.9471 69.945 42.6308 70.0021C42.3741 70.0496 42.1186 70.0995 41.8594 70.1408C41.5029 70.1968 41.1428 70.2418 40.7839 70.2868C40.5564 70.316 40.3301 70.3501 40.1001 70.3744C39.6901 70.4182 39.2764 70.4462 38.864 70.4754C38.6803 70.4876 38.4978 70.5083 38.3116 70.518C37.7094 70.5496 37.1059 70.5667 36.5 70.5667C35.8941 70.5667 35.2906 70.5496 34.6896 70.518C34.5047 70.5083 34.3222 70.4888 34.1372 70.4754C33.7236 70.4474 33.3111 70.4182 32.9011 70.3744C32.6712 70.3501 32.4449 70.316 32.2173 70.2868C31.8584 70.2418 31.4983 70.1968 31.1418 70.1408C30.8827 70.0995 30.6272 70.0496 30.3704 70.0021C30.0529 69.945 29.7353 69.8866 29.4214 69.8209C29.1331 69.76 28.8472 69.6907 28.5625 69.6225C28.2899 69.5568 28.0174 69.4923 27.7473 69.4206C27.4273 69.3354 27.1086 69.2429 26.7922 69.1493C26.5696 69.0835 26.3469 69.0166 26.1255 68.9461C25.769 68.8317 25.415 68.7113 25.0646 68.5859C24.8979 68.5263 24.7324 68.4655 24.5669 68.4046C24.1703 68.2562 23.7761 68.1017 23.3868 67.9387C23.2858 67.8973 23.1872 67.8535 23.0863 67.8109C22.641 67.6199 22.1993 67.4216 21.7637 67.2123C21.7455 67.2038 21.7285 67.1953 21.7102 67.1856C17.4653 65.1318 13.7155 62.2167 10.6726 58.6762C13.0244 50.016 19.682 43.0347 28.2473 40.2571C28.4165 40.3605 28.5929 40.4529 28.7669 40.5503C28.8691 40.6075 28.9701 40.6683 29.0735 40.7231C29.436 40.9153 29.8035 41.0954 30.1794 41.2572C30.4678 41.3837 30.7659 41.4908 31.0627 41.6003C31.1211 41.621 31.1795 41.6441 31.2379 41.6647C32.8877 42.2487 34.6531 42.5833 36.5 42.5833C38.3469 42.5833 40.1123 42.2487 41.7609 41.6647C41.8193 41.6441 41.8777 41.621 41.9361 41.6003C42.2329 41.4908 42.531 41.3837 42.8194 41.2572C43.1953 41.0954 43.5628 40.9153 43.9253 40.7231C44.0287 40.6671 44.1297 40.6075 44.2319 40.5503C44.4059 40.4529 44.5835 40.3605 44.7539 40.2559C53.3192 43.0347 59.9756 50.016 62.3286 58.675C59.2857 62.2143 55.536 65.1294 51.291 67.1843ZM23.1167 26.7667C23.1167 19.3876 29.1209 13.3833 36.5 13.3833C43.8791 13.3833 49.8833 19.3876 49.8833 26.7667C49.8833 31.4606 47.4488 35.5911 43.7805 37.9807C43.3012 38.2921 42.8023 38.5708 42.2901 38.8141C42.2293 38.8433 42.1697 38.8737 42.1088 38.9017C38.5854 40.5041 34.4146 40.5041 30.8912 38.9017C30.8303 38.8737 30.7695 38.8433 30.7099 38.8141C30.1964 38.5708 29.6988 38.2921 29.2195 37.9807C25.5512 35.5911 23.1167 31.4606 23.1167 26.7667ZM64.1536 56.3597C61.3954 48.2153 55.1028 41.6331 47.0631 38.5063C50.2788 35.6094 52.3167 31.4265 52.3167 26.7667C52.3167 18.0456 45.2211 10.95 36.5 10.95C27.7789 10.95 20.6833 18.0456 20.6833 26.7667C20.6833 31.4265 22.7213 35.6094 25.9381 38.5063C17.8984 41.6343 11.6058 48.2153 8.8476 56.3597C4.81678 50.7642 2.43333 43.9071 2.43333 36.5C2.43333 17.7159 17.7159 2.43333 36.5 2.43333C55.2841 2.43333 70.5667 17.7159 70.5667 36.5C70.5667 43.9071 68.1832 50.7642 64.1536 56.3597Z" fill="#789D55"/>
</svg>
