<svg width="54" height="54" viewBox="0 0 54 54" fill="none" xmlns="http://www.w3.org/2000/svg">
<path d="M1.6875 48.0938C1.6875 50.4233 3.57666 52.3125 5.90625 52.3125H42.1875V43.875H5.90625C3.57666 43.875 1.6875 45.7642 1.6875 48.0938Z" fill="#789D55"/>
<path d="M20.25 16.0312C21.648 16.0312 22.7812 14.898 22.7812 13.5C22.7812 12.102 21.648 10.9688 20.25 10.9688C18.852 10.9688 17.7188 12.102 17.7188 13.5C17.7188 14.898 18.852 16.0312 20.25 16.0312Z" fill="#789D55"/>
<path d="M30.375 23.625V30.0257L28.6875 31.7132V22.9255L42.1875 9.42553V2.53125H5.90625C3.57666 2.53125 1.6875 4.42041 1.6875 6.75V43.9687C2.76075 42.8709 4.25419 42.1875 5.90625 42.1875H42.1875V29.3861L38.6674 32.9062H32.0625L27 37.9687L25.909 36.8778L46.159 16.6278L47.25 17.7187L33.75 31.2187H37.9688L46.3818 22.8057C50.1787 19.0088 52.3125 13.8577 52.3125 8.48728V1.6875L30.375 23.625ZM20.25 7.59375C24.4443 7.59375 27.8438 10.9932 27.8438 15.1875C27.8438 17.4395 26.8574 19.4569 25.2998 20.8474C25.1707 18.1668 22.9627 16.0312 20.25 16.0312C17.5373 16.0312 15.3292 18.1668 15.2002 20.8474C13.6426 19.4569 12.6562 17.4395 12.6562 15.1875C12.6562 10.9932 16.0557 7.59375 20.25 7.59375ZM12.6562 27H25.3125V28.6875H12.6562V27ZM12.6562 31.2187H23.625V32.9062H12.6562V31.2187ZM21.0938 37.125H12.6562V35.4375H21.0938V37.125Z" fill="#789D55"/>
</svg>
