<svg width="25" height="45" viewBox="0 0 25 45" fill="none" xmlns="http://www.w3.org/2000/svg">
<path d="M21.7873 0H3.21268C1.43501 0 0 1.46928 0 3.278V41.7253C0 43.5324 1.43501 45 3.21268 45H21.7873C23.5618 45 25 43.5324 25 41.7253V3.278C25 1.46928 23.5618 0 21.7873 0ZM7.91667 1.99074H17.0866C17.3182 1.99074 17.5064 2.34331 17.5064 2.7795C17.5064 3.21569 17.3182 3.56989 17.0866 3.56989H7.91667C7.6834 3.56989 7.49839 3.21569 7.49839 2.7795C7.49839 2.34331 7.6834 1.99074 7.91667 1.99074ZM12.5016 41.7646C11.3707 41.7646 10.4504 40.8267 10.4504 39.6722C10.4504 38.5178 11.3707 37.5831 12.5016 37.5831C13.6293 37.5831 14.5495 38.5178 14.5495 39.6722C14.5495 40.8267 13.6293 41.7646 12.5016 41.7646ZM22.5933 34.6002H2.4083V5.53112H22.5933V34.6002Z" fill="#789D55"/>
</svg>
