<svg width="43" height="43" viewBox="0 0 43 43" fill="none" xmlns="http://www.w3.org/2000/svg">
<g clip-path="url(#clip0)">
<path d="M41.8974 34.886L8.19825 1.18676C6.72854 -0.282956 4.34576 -0.282956 2.87834 1.18676L1.10229 2.96006C-0.367429 4.43024 -0.367429 6.81301 1.10229 8.28043L34.8015 41.9796C36.2716 43.4493 38.6544 43.4493 40.1218 41.9796L41.8951 40.2063C43.3676 38.7389 43.3676 36.3557 41.8974 34.886Z" fill="#789D55"/>
<path d="M34.8014 1.18727L1.10229 34.8865C-0.367428 36.3562 -0.367428 38.7394 1.10229 40.2068L2.87559 41.9801C4.34576 43.4498 6.72853 43.4498 8.19595 41.9801L41.8974 8.28324C43.3676 6.81352 43.3676 4.43075 41.8974 2.96333L40.1241 1.19002C38.6544 -0.282446 36.2716 -0.282446 34.8014 1.18727Z" fill="#789D55"/>
</g>
<defs>
<clipPath id="clip0">
<rect width="43" height="43" fill="white"/>
</clipPath>
</defs>
</svg>
