<svg width="47" height="47" viewBox="0 0 47 47" fill="none" xmlns="http://www.w3.org/2000/svg">
<g clip-path="url(#clip0)">
<path d="M3.8167 40.0361C0.05521 40.0361 3.75565 36.2194 3.75565 36.2194L13.3457 25.68C14.2784 24.6553 16.0784 23.0994 17.1307 23.9577C18.1829 24.8159 19.5883 26.5549 20.567 27.5361L22.5502 29.521C23.6133 30.462 24.4313 29.521 24.4313 29.521L26.4606 27.5219C27.4476 26.5491 28.8612 24.8519 29.9151 24.0623C30.969 23.2728 32.7616 24.7742 33.6917 25.8013L43.2256 36.3358C46.9888 40.0363 43.2866 40.0363 43.2866 40.0363H3.8167V40.0361ZM5.44455 31.3652C4.51183 32.3907 3.14927 34.174 2.22838 35.2096C1.18863 36.3783 0 37.2656 0 35.2189L0.0452136 14.6577C0.0485969 13.2716 0.01015 10.6285 0.957021 11.1028C1.3092 11.2793 1.79101 11.6464 2.44507 12.3014L10.2058 18.651C11.2782 19.5285 12.7896 20.6024 13.284 21.3177C13.5961 21.7686 13.7391 22.293 13.2874 22.7464L5.44455 31.3652ZM26.3628 24.0605C25.2913 24.9395 24.1268 26.1867 23.5321 26.1884C22.9374 26.1892 21.7513 24.9706 20.6748 24.0972L3.78841 10.3993C2.71189 9.5269 0.857521 7.76957 1.77917 7.29852C2.44492 6.95803 3.60848 6.96387 3.60848 6.96387H43.2902C46.8627 6.96387 45.046 8.72797 45.046 8.72797L26.3628 24.0605ZM44.7692 35.2096C43.8466 34.1749 42.4831 32.3907 41.5513 31.3652L33.7129 22.7454C33.2588 22.2921 33.4009 21.7676 33.7129 21.3167C34.2072 20.6016 35.7195 19.5283 36.7928 18.651L42.6129 13.8899C43.6853 13.0123 45.0955 11.577 46.0416 11.1028C46.9877 10.6285 46.9466 13.2726 46.95 14.6577L47.0002 35.2189C47.0008 37.2656 45.8105 36.3783 44.7692 35.2096Z" fill="#789D55"/>
</g>
<defs>
<clipPath id="clip0">
<rect width="47" height="47" fill="white"/>
</clipPath>
</defs>
</svg>
