<svg width="45" height="45" viewBox="0 0 45 45" fill="none" xmlns="http://www.w3.org/2000/svg">
<g clip-path="url(#clip0)">
<path d="M40.7813 45H9.84377C9.06645 45 8.4375 44.371 8.4375 43.5937V39.375H11.25V42.1875H39.375V2.81245H11.25V5.62498H8.4375V1.40627C8.4375 0.628956 9.06645 0 9.84377 0H40.7813C41.5586 0 42.1875 0.628956 42.1875 1.40627V43.5937C42.1875 44.371 41.5585 45 40.7813 45V45Z" fill="#789D55"/>
<path d="M16.7047 15.0567L18.6932 13.0682L28.125 22.5L18.6932 31.9318L16.7047 29.9432L22.7417 23.9063H2.8125V21.0937H22.7417L16.7047 15.0567Z" fill="#789D55"/>
</g>
<defs>
<clipPath id="clip0">
<rect width="45" height="45" fill="white" transform="matrix(1 0 0 -1 0 45)"/>
</clipPath>
</defs>
</svg>
