<svg width="46" height="50" viewBox="0 0 46 50" fill="none" xmlns="http://www.w3.org/2000/svg">
<path d="M44.0934 14.323C42.8777 13.1079 41.4021 12.5002 39.6657 12.5002C37.9302 12.5002 36.4546 13.1079 35.2387 14.323C34.0238 15.5384 33.4163 17.0139 33.4163 18.7503C33.4163 20.0957 33.8013 21.3004 34.5716 22.3634C35.3426 23.427 36.3458 24.186 37.583 24.642V37.5002C37.583 39.8007 36.5627 41.7649 34.5232 43.3923C32.4833 45.0197 30.0314 45.8336 27.1664 45.8336C24.3021 45.8336 21.8496 45.0197 19.8095 43.3923C17.7698 41.765 16.7497 39.8007 16.7497 37.5002V33.2034C20.3089 32.7696 23.2819 31.3802 25.6693 29.0363C28.0564 26.6929 29.2503 23.9583 29.2503 20.8329V4.16693C29.2503 3.60278 29.0436 3.11422 28.6314 2.70183C28.2194 2.29 27.7302 2.08341 27.1658 2.08341C27.0363 2.08341 26.8623 2.10541 26.6455 2.14863C26.2763 1.49725 25.7667 0.977114 25.1151 0.585927C24.4651 0.195081 23.7593 0 22.9998 0C21.85 0 20.8679 0.407378 20.054 1.22065C19.24 2.03461 18.8332 3.01663 18.8332 4.16693C18.8332 5.31678 19.24 6.29891 20.054 7.11275C20.8679 7.9266 21.85 8.33352 22.9998 8.33352C23.7159 8.33352 24.4102 8.13844 25.0831 7.74759V20.8334C25.0831 23.1341 24.0632 25.0978 22.0234 26.7257C19.9833 28.3528 17.5308 29.1663 14.6665 29.1663C11.8022 29.1663 9.34973 28.3527 7.30976 26.7257C5.27002 25.0983 4.24992 23.1345 4.24992 20.8334V7.74759C4.92239 8.13832 5.61731 8.33352 6.33333 8.33352C7.48318 8.33352 8.46531 7.92671 9.27916 7.11275C10.0929 6.2988 10.4996 5.31678 10.4996 4.16693C10.4996 3.01674 10.0929 2.03461 9.27916 1.22065C8.4652 0.407378 7.48307 0 6.33322 0C5.57353 0 4.86812 0.195081 4.21709 0.585927C3.56629 0.976658 3.05607 1.49714 2.68734 2.14863C2.47002 2.10553 2.29661 2.08341 2.16629 2.08341C1.60168 2.08341 1.11358 2.29 0.701185 2.70183C0.289018 3.11422 0.0827637 3.60278 0.0827637 4.16693V20.8335C0.0827637 23.9585 1.27605 26.6923 3.66343 29.0364C6.05069 31.3803 9.02376 32.7697 12.5828 33.204V37.5007C12.5828 40.9515 14.0097 43.8973 16.8636 46.3382C19.7175 48.7797 23.1516 50.0001 27.1658 50.0001C31.1816 50.0001 34.6152 48.7797 37.469 46.3382C40.3235 43.8973 41.7492 40.9515 41.7492 37.5007V24.642C42.9868 24.186 43.9903 23.4269 44.7606 22.3634C45.5316 21.3003 45.9172 20.0956 45.9172 18.7503C45.9169 17.0144 45.3094 15.5383 44.0934 14.323ZM41.1321 20.2151C40.7192 20.6275 40.2308 20.8335 39.6665 20.8335C39.1022 20.8335 38.6145 20.6275 38.2018 20.2151C37.7897 19.8028 37.5837 19.3146 37.5837 18.7503C37.5837 18.1862 37.7897 17.6976 38.2018 17.2852C38.6145 16.8734 39.1022 16.6668 39.6665 16.6668C40.2308 16.6668 40.7191 16.8734 41.1321 17.2852C41.5441 17.6976 41.7501 18.1862 41.7501 18.7503C41.7501 19.3149 41.5441 19.8028 41.1321 20.2151Z" fill="#789D55"/>
</svg>
