<svg width="38" height="38" viewBox="0 0 38 38" fill="none" xmlns="http://www.w3.org/2000/svg">
<path d="M18.9369 34.7808H4.73419C3.86309 34.7808 3.15615 34.0737 3.15615 33.2027V4.79735C3.15615 3.92624 3.86316 3.21931 4.73419 3.21931H18.9369C19.8096 3.21931 20.515 2.51393 20.515 1.64127C20.515 0.768603 19.8096 0.0630798 18.9369 0.0630798H4.73419C2.12407 0.0630798 0 2.18722 0 4.79735V33.2026C0 35.8128 2.12407 37.9368 4.73419 37.9368H18.9369C19.8096 37.9368 20.515 37.2315 20.515 36.3588C20.515 35.4861 19.8096 34.7808 18.9369 34.7808Z" fill="#789D55"/>
<path d="M37.5296 17.8764L27.9349 8.40793C27.3163 7.79563 26.3159 7.80357 25.7036 8.42374C25.0912 9.04391 25.0976 10.0428 25.7194 10.6551L32.5761 17.4219H14.2025C13.3299 17.4219 12.6245 18.1272 12.6245 18.9999C12.6245 19.8726 13.3299 20.578 14.2025 20.578H32.5761L25.7194 27.3448C25.0976 27.9571 25.0929 28.956 25.7036 29.5762C26.0128 29.8886 26.42 30.0464 26.8271 30.0464C27.228 30.0464 27.6288 29.8949 27.9349 29.5919L37.5296 20.1234C37.8295 19.8268 37.9999 19.4227 37.9999 18.9998C37.9999 18.5771 37.831 18.1747 37.5296 17.8764Z" fill="#789D55"/>
</svg>
