<svg width="48" height="48" viewBox="0 0 48 48" fill="none" xmlns="http://www.w3.org/2000/svg">
<path d="M48 24C48 10.7438 37.2562 0 24 0C10.7438 0 0 10.7438 0 24C0 37.2562 10.7438 48 24 48C24.1406 48 24.2812 48 24.4219 47.9906V29.3156H19.2656V23.3063H24.4219V18.8812C24.4219 13.7531 27.5531 10.9594 32.1281 10.9594C34.3219 10.9594 36.2062 11.1188 36.75 11.1938V16.5563H33.6C31.1156 16.5563 30.6281 17.7375 30.6281 19.4719V23.2969H36.5813L35.8031 29.3063H30.6281V47.0719C40.6594 44.1938 48 34.9594 48 24Z" fill="#789D55"/>
</svg>
