<svg width="43" height="51" viewBox="0 0 43 51" fill="none" xmlns="http://www.w3.org/2000/svg">
<path d="M38.7716 16.5092L41.9126 15.6756C41.6104 14.5401 41.2142 13.4319 40.7281 12.3623L37.769 13.7094C38.1811 14.613 38.5164 15.5495 38.7716 16.5092Z" fill="#789D55"/>
<path d="M39.0039 9.29418C38.346 8.32155 37.6079 7.40569 36.7972 6.55615L34.4443 8.79857C35.1304 9.51781 35.7554 10.2929 36.313 11.1157L39.0039 9.29418Z" fill="#789D55"/>
<path d="M42.53 19.1333L39.2948 19.4388C39.3484 20.001 39.3744 20.5616 39.3744 21.1255C39.3879 25.8687 37.5026 30.42 34.1388 33.7643L21.5 46.4047L8.86126 33.7643C1.88102 26.7837 1.88132 15.4663 8.86187 8.48607C12.2138 5.13432 16.7599 3.25122 21.5 3.25111C25.3694 3.23923 29.1363 4.4949 32.2247 6.82598L34.1746 4.22608C24.8413 -2.77386 11.6006 -0.88233 4.60066 8.45093C1.85827 12.1075 0.375813 16.5548 0.375813 21.1255C0.360275 26.731 2.58858 32.1096 6.56359 36.0619L21.5 51L36.4365 36.0619C40.4121 32.11 42.6405 26.7311 42.6243 21.1255C42.6243 20.4604 42.5929 19.7963 42.53 19.1333Z" fill="#789D55"/>
<path d="M31.2498 32.5002V20.3375L33.5443 22.3475L35.6859 19.9101L21.5002 7.47607L7.31445 19.9036L9.45613 22.341L11.7505 20.3375V32.5002H31.2498ZM15.0004 17.4906L21.5002 11.8033L28 17.4987V29.2503H15.0004V17.4906Z" fill="#789D55"/>
</svg>
