<svg width="56" height="42" viewBox="0 0 56 42" fill="none" xmlns="http://www.w3.org/2000/svg">
<path d="M50.8447 0.907715H5.15528C2.27467 0.907715 0 3.24725 0 6.063V35.9369C0 38.8174 2.33953 41.0921 5.15528 41.0921H50.8447C53.7253 41.0921 56 38.7526 56 35.9368V6.063C56 3.18228 53.6605 0.907715 50.8447 0.907715ZM52.7188 35.9368C52.7188 36.9711 51.8812 37.8108 50.8447 37.8108H5.15528C4.12103 37.8108 3.28125 36.9732 3.28125 35.9368V6.063C3.28125 5.02875 4.11884 4.18897 5.15528 4.18897H50.8447C51.879 4.18897 52.7188 5.02656 52.7188 6.063V35.9368Z" fill="#789D55"/>
<path d="M21.9559 25.0146C22.9092 23.9472 23.4901 22.5405 23.4901 21.0002C23.4901 17.6731 20.7833 14.9663 17.4562 14.9663C14.1291 14.9663 11.4224 17.6731 11.4224 21.0002C11.4224 22.5405 12.0033 23.9472 12.9565 25.0145C10.4581 26.5376 8.78638 29.2885 8.78638 32.4226C8.78638 33.3286 9.52094 34.0632 10.427 34.0632H24.4853C25.3914 34.0632 26.1259 33.3286 26.1259 32.4226C26.1259 29.2885 24.4542 26.5377 21.9559 25.0146ZM17.4562 18.2476C18.974 18.2476 20.2088 19.4824 20.2088 21.0002C20.2088 22.518 18.974 23.7528 17.4562 23.7528C15.9384 23.7528 14.7037 22.518 14.7037 21.0002C14.7037 19.4824 15.9384 18.2476 17.4562 18.2476ZM12.3229 30.782C13.0185 28.6105 15.0567 27.0341 17.4562 27.0341C19.8557 27.0341 21.8938 28.6104 22.5895 30.782H12.3229Z" fill="#789D55"/>
<path d="M45.5731 16.7231H33.272C32.3659 16.7231 31.6313 17.4577 31.6313 18.3638C31.6313 19.2698 32.3659 20.0044 33.272 20.0044H45.5731C46.4791 20.0044 47.2137 19.2698 47.2137 18.3638C47.2137 17.4577 46.4791 16.7231 45.5731 16.7231Z" fill="#789D55"/>
<path d="M45.5729 7.93701H10.427C9.52094 7.93701 8.78638 8.67157 8.78638 9.57764C8.78638 10.4837 9.52094 11.2183 10.427 11.2183H45.5729C46.479 11.2183 47.2135 10.4837 47.2135 9.57764C47.2135 8.67157 46.479 7.93701 45.5729 7.93701Z" fill="#789D55"/>
<path d="M45.5731 23.7524H33.272C32.3659 23.7524 31.6313 24.487 31.6313 25.3931C31.6313 26.2991 32.3659 27.0337 33.272 27.0337H45.5731C46.4791 27.0337 47.2137 26.2991 47.2137 25.3931C47.2137 24.487 46.4791 23.7524 45.5731 23.7524Z" fill="#789D55"/>
<path d="M42.0584 30.7817H33.272C32.3659 30.7817 31.6313 31.5163 31.6313 32.4224C31.6313 33.3284 32.3659 34.063 33.272 34.063H42.0584C42.9645 34.063 43.699 33.3284 43.699 32.4224C43.699 31.5163 42.9645 30.7817 42.0584 30.7817Z" fill="#789D55"/>
</svg>
