<svg width="42" height="54" viewBox="0 0 42 54" fill="none" xmlns="http://www.w3.org/2000/svg">
<path d="M40.125 20.25H36.75V15.75C36.75 7.06535 29.6847 0 21 0C12.3153 0 5.25004 7.06535 5.25004 15.75V20.25H1.87504C1.25319 20.25 0.75 20.7532 0.75 21.375V49.5001C0.75 51.9819 2.76814 54 5.25004 54H36.7501C39.2319 54 41.25 51.9819 41.25 49.5V21.375C41.25 20.7532 40.7468 20.25 40.125 20.25ZM24.3685 43.7509C24.4036 44.0683 24.3015 44.3869 24.0883 44.6254C23.8752 44.8638 23.5697 45 23.2501 45H18.75C18.4304 45 18.1249 44.8638 17.9118 44.6254C17.6986 44.387 17.5964 44.0684 17.6316 43.7509L18.3413 37.3689C17.1889 36.5307 16.5001 35.2046 16.5001 33.75C16.5001 31.2682 18.5182 29.25 21.0001 29.25C23.482 29.25 25.5001 31.2681 25.5001 33.75C25.5001 35.2046 24.8113 36.5307 23.6589 37.3689L24.3685 43.7509ZM30 20.25H12V15.75C12 10.7874 16.0375 6.75 21 6.75C25.9625 6.75 30 10.7874 30 15.75V20.25V20.25Z" fill="#789D55"/>
</svg>
