<svg width="70" height="70" viewBox="0 0 70 70" fill="none" xmlns="http://www.w3.org/2000/svg">
<path d="M67.8007 25.9222C65.2079 23.7464 61.3281 24.0868 59.1563 26.6749L53.3191 33.5824V13.5525C53.3191 11.8738 52.621 10.248 51.4039 9.09209L43.614 1.69218C42.4657 0.601306 40.9609 0.000427246 39.377 0.000427246H6.15221C2.75994 0.000427246 0 2.76037 0 6.15263V63.8467C0 67.239 2.75994 69.9989 6.15221 69.9989H47.167C50.5593 69.9989 53.3192 67.239 53.3192 63.8467V52.6411C53.5712 52.3426 68.5119 34.6452 68.559 34.5896C70.7447 31.9848 70.4059 28.108 67.8007 25.9222ZM41.0148 4.87992C49.2197 12.674 48.637 12.1043 48.7908 12.305H41.0148V4.87992ZM49.2177 63.8467C49.2177 64.9775 48.2977 65.8975 47.1669 65.8975H6.15221C5.02141 65.8975 4.10143 64.9775 4.10143 63.8467V6.15263C4.10143 5.02183 5.02141 4.10185 6.15221 4.10185H36.9132V14.3555C36.9132 15.4881 37.8314 16.4063 38.964 16.4063H49.2177V38.4356C48.3368 39.478 41.2636 47.8477 40.4991 48.7524C39.8884 49.4803 39.4488 50.3535 39.2282 51.2776L37.3223 59.256C37.142 60.0115 37.4038 60.8042 37.9988 61.3035C38.5943 61.8033 39.4205 61.9227 40.1326 61.6141L47.6589 58.3517C48.224 58.1067 48.751 57.7739 49.2177 57.374V63.8467ZM44.3399 50.562L47.4815 53.198L46.7828 54.0254C46.5795 54.2679 46.3183 54.4627 46.0277 54.5887L42.2647 56.2199L43.2177 52.2307C43.2913 51.9226 43.4377 51.6316 43.6367 51.3945L44.3399 50.562ZM50.1271 50.064L46.9871 47.4292C47.3056 47.0523 57.6099 34.8589 58.3224 34.0158L61.4559 36.645L50.1271 50.064ZM65.4211 31.9485L64.1019 33.5111L60.97 30.8831L62.2937 29.3168C63.0168 28.455 64.3048 28.3426 65.1644 29.064C66.041 29.7994 66.1377 31.0945 65.4211 31.9485Z" fill="#789D55"/>
<path d="M30.7613 12.3055H10.2539C9.12133 12.3055 8.20312 13.2237 8.20312 14.3563C8.20312 15.4888 9.12133 16.407 10.2539 16.407H30.7613C31.8939 16.407 32.8121 15.4888 32.8121 14.3563C32.8121 13.2237 31.8939 12.3055 30.7613 12.3055Z" fill="#789D55"/>
<path d="M43.0657 24.7462H10.2539C9.12133 24.7462 8.20312 25.6644 8.20312 26.797C8.20312 27.9296 9.12133 28.8478 10.2539 28.8478H43.0657C44.1983 28.8478 45.1165 27.9296 45.1165 26.797C45.1165 25.6644 44.1983 24.7462 43.0657 24.7462Z" fill="#789D55"/>
<path d="M43.0657 37.0508H10.2539C9.12133 37.0508 8.20312 37.969 8.20312 39.1016C8.20312 40.2341 9.12133 41.1523 10.2539 41.1523H43.0657C44.1983 41.1523 45.1165 40.2341 45.1165 39.1016C45.1165 37.9688 44.1983 37.0508 43.0657 37.0508Z" fill="#789D55"/>
<path d="M30.7613 49.3553H10.2539C9.12133 49.3553 8.20312 50.2735 8.20312 51.4061C8.20312 52.5386 9.12133 53.4568 10.2539 53.4568H30.7613C31.8939 53.4568 32.8121 52.5386 32.8121 51.4061C32.8121 50.2735 31.8939 49.3553 30.7613 49.3553Z" fill="#789D55"/>
</svg>
