<svg width="47" height="47" viewBox="0 0 47 47" fill="none" xmlns="http://www.w3.org/2000/svg">
<g clip-path="url(#clip0)">
<path d="M29.0382 17.9611C28.6563 17.5793 28.0355 17.5793 27.6536 17.9611C27.2718 18.343 27.2718 18.9657 27.6536 19.3457C28.7621 20.4541 29.375 21.9288 29.375 23.4993C29.375 26.7384 26.7391 29.3743 23.5 29.3743C21.9295 29.3743 20.4548 28.7633 19.3464 27.6529C18.9645 27.2711 18.3437 27.2711 17.9618 27.6529C17.5799 28.0329 17.5799 28.6556 17.9618 29.0375C19.4384 30.518 21.4065 31.3327 23.5 31.3327C27.8201 31.3327 31.3333 27.8195 31.3333 23.4994C31.3333 21.4058 30.5187 19.4377 29.0382 17.9611Z" fill="#789D55"/>
<path d="M24.865 15.8011C24.4204 15.7228 23.9661 15.6659 23.5 15.6659C19.18 15.6659 15.6667 19.1792 15.6667 23.4992C15.6667 23.9653 15.7236 24.4197 15.8038 24.8641C15.888 25.3381 16.3012 25.673 16.7654 25.673C16.8222 25.673 16.8789 25.669 16.9377 25.6573C17.4684 25.5633 17.8248 25.0541 17.7308 24.5234C17.6701 24.1904 17.625 23.8517 17.625 23.4992C17.625 20.2602 20.261 17.6242 23.5 17.6242C23.8525 17.6242 24.1914 17.6693 24.5242 17.7281C25.0452 17.8338 25.5641 17.4656 25.6581 16.9349C25.7521 16.4043 25.3957 15.8951 24.865 15.8011Z" fill="#789D55"/>
<path d="M46.7669 22.8667C46.5456 22.6043 41.2484 16.4219 33.9418 12.6365C33.4678 12.3878 32.8706 12.5758 32.6219 13.0575C32.3732 13.5374 32.5612 14.1287 33.0429 14.3775C38.6712 17.2915 43.1675 21.8387 44.7048 23.4994C42.3705 26.0276 33.1839 35.2494 23.5 35.2494C20.214 35.2494 16.9024 34.4563 13.6535 32.8896C13.1718 32.6526 12.5824 32.8583 12.3474 33.3459C12.1104 33.8316 12.3161 34.4171 12.8037 34.6521C16.3189 36.3499 19.9183 37.2077 23.5001 37.2077C35.5654 37.2077 46.3166 24.6665 46.769 24.1319C47.0783 23.7675 47.0763 23.2329 46.7669 22.8667Z" fill="#789D55"/>
<path d="M29.9254 10.9189C27.6968 10.1689 25.5349 9.79094 23.5001 9.79094C11.4348 9.79094 0.68356 22.3321 0.231185 22.8667C-0.0547613 23.2035 -0.0782613 23.6932 0.176383 24.0594C0.311508 24.2532 3.54863 28.8494 9.15924 32.5762C9.32567 32.6878 9.51174 32.7407 9.69974 32.7407C10.0151 32.7407 10.3264 32.5879 10.5144 32.3001C10.8141 31.8516 10.6907 31.2426 10.2402 30.9449C6.11994 28.2052 3.29995 24.8976 2.24438 23.5522C4.49845 21.1042 13.7457 11.7493 23.5001 11.7493C25.3233 11.7493 27.2758 12.094 29.3006 12.7735C29.8137 12.9576 30.3699 12.6736 30.5403 12.1586C30.7126 11.6455 30.4384 11.0913 29.9254 10.9189Z" fill="#789D55"/>
<path d="M40.8371 6.16213C40.4553 5.78026 39.8345 5.78026 39.4526 6.16213L6.16104 39.4538C5.77917 39.8356 5.77917 40.4565 6.16104 40.8383C6.35299 41.0283 6.60359 41.1243 6.85429 41.1243C7.10498 41.1243 7.35559 41.0284 7.54561 40.8383L40.8371 7.5467C41.219 7.16483 41.219 6.544 40.8371 6.16213Z" fill="#789D55"/>
</g>
<defs>
<clipPath id="clip0">
<rect width="47" height="47" fill="white"/>
</clipPath>
</defs>
</svg>
