<svg width="48" height="48" viewBox="0 0 48 48" fill="none" xmlns="http://www.w3.org/2000/svg">
<g clip-path="url(#clip0)">
<path d="M46.6937 35.2272L39.9952 28.5286C37.6028 26.1363 33.5359 27.0933 32.5789 30.2033C31.8612 32.3565 29.4689 33.5526 27.3158 33.0741C22.5311 31.8779 16.0718 25.6578 14.8756 20.6339C14.1579 18.4807 15.5933 16.0884 17.7464 15.3708C20.8565 14.4138 21.8134 10.3469 19.4211 7.95452L12.7225 1.25598C10.8087 -0.418659 7.93785 -0.418659 6.26321 1.25598L1.71777 5.80142C-2.82767 10.5861 2.19624 23.2655 13.4402 34.5095C24.6842 45.7534 37.3636 51.0167 42.1483 46.2319L46.6937 41.6865C48.3684 39.7726 48.3684 36.9018 46.6937 35.2272Z" fill="#789D55"/>
</g>
<defs>
<clipPath id="clip0">
<rect width="48" height="48" fill="white"/>
</clipPath>
</defs>
</svg>
