<svg width="55" height="55" viewBox="0 0 55 55" fill="none" xmlns="http://www.w3.org/2000/svg">
<path d="M27.5 55C12.3359 55 0 42.6641 0 27.5C0 12.3359 12.3359 0 27.5 0C42.6641 0 55 12.3359 55 27.5C55 42.6641 42.6641 55 27.5 55Z" fill="#789D55"/>
<path d="M39.5313 25.2085H29.7915V15.4687C29.7915 14.2036 28.7652 13.1772 27.5 13.1772C26.2349 13.1772 25.2085 14.2036 25.2085 15.4687V25.2085H15.4688C14.2036 25.2085 13.1772 26.2348 13.1772 27.5C13.1772 28.7651 14.2036 29.7915 15.4688 29.7915H25.2085V39.5312C25.2085 40.7964 26.2349 41.8228 27.5 41.8228C28.7652 41.8228 29.7915 40.7964 29.7915 39.5312V29.7915H39.5313C40.7964 29.7915 41.8228 28.7651 41.8228 27.5C41.8228 26.2348 40.7964 25.2085 39.5313 25.2085Z" fill="#FAFAFA"/>
</svg>
