<svg width="44" height="44" viewBox="0 0 44 44" fill="none" xmlns="http://www.w3.org/2000/svg">
<path d="M37.5564 28.4436C35.1602 26.0475 32.3081 24.2736 29.1963 23.1999C32.5291 20.9044 34.7188 17.0627 34.7188 12.7188C34.7188 5.70565 29.0131 0 22 0C14.9869 0 9.28125 5.70565 9.28125 12.7188C9.28125 17.0627 11.4709 20.9044 14.8038 23.1999C11.692 24.2736 8.83988 26.0475 6.44368 28.4436C2.28843 32.5989 0 38.1236 0 44H3.4375C3.4375 33.7646 11.7646 25.4375 22 25.4375C32.2354 25.4375 40.5625 33.7646 40.5625 44H44C44 38.1236 41.7116 32.5989 37.5564 28.4436ZM22 22C16.8823 22 12.7188 17.8365 12.7188 12.7188C12.7188 7.601 16.8823 3.4375 22 3.4375C27.1177 3.4375 31.2812 7.601 31.2812 12.7188C31.2812 17.8365 27.1177 22 22 22Z" fill="#789D55"/>
</svg>
