<svg width="47" height="47" viewBox="0 0 47 47" fill="none" xmlns="http://www.w3.org/2000/svg">
<g clip-path="url(#clip0)">
<path d="M46.8262 22.9438C46.456 22.4052 37.5612 9.7914 23.5001 9.7914C11.4346 9.7914 0.683201 22.3328 0.230819 22.8674C-0.076614 23.2317 -0.076614 23.7663 0.230819 24.1325C0.683201 24.6671 11.4346 37.2085 23.5001 37.2085C35.5656 37.2085 46.317 24.6671 46.7693 24.1325C47.0534 23.7957 47.0788 23.308 46.8262 22.9438ZM23.5001 35.2502C13.8278 35.2502 4.63126 26.0263 2.295 23.5C4.62741 20.9718 13.8141 11.7498 23.5001 11.7498C34.8175 11.7498 42.8057 20.96 44.7562 23.4471C42.504 25.8931 33.2547 35.2502 23.5001 35.2502Z" fill="#789D55"/>
<path d="M23.4999 15.6665C19.1798 15.6665 15.6665 19.1798 15.6665 23.4999C15.6665 27.82 19.1798 31.3333 23.4999 31.3333C27.8201 31.3333 31.3334 27.82 31.3334 23.4999C31.3334 19.1798 27.8201 15.6665 23.4999 15.6665ZM23.4999 29.3751C20.2608 29.3751 17.6248 26.7391 17.6248 23.5C17.6248 20.2609 20.2608 17.6249 23.4999 17.6249C26.739 17.6249 29.375 20.2609 29.375 23.5C29.375 26.7391 26.739 29.3751 23.4999 29.3751Z" fill="#789D55"/>
</g>
<defs>
<clipPath id="clip0">
<rect width="47" height="47" fill="white"/>
</clipPath>
</defs>
</svg>
